<svg width="68" height="20" viewBox="0 0 68 20" fill="none" xmlns="http://www.w3.org/2000/svg">
<path d="M3.4002 11.92V1.00002H0.200195V15H8.4002V11.92H3.4002Z" fill="#0B0D17"/>
<path d="M16.8719 5.00002V5.94002C16.2119 5.18002 15.2319 4.72002 13.8919 4.72002C11.2719 4.72002 9.11191 7.02002 9.11191 10C9.11191 12.98 11.2719 15.28 13.8919 15.28C15.2319 15.28 16.2119 14.82 16.8719 14.06V15H19.8719V5.00002H16.8719ZM14.4919 12.44C13.1119 12.44 12.1119 11.5 12.1119 10C12.1119 8.50002 13.1119 7.56002 14.4919 7.56002C15.8719 7.56002 16.8719 8.50002 16.8719 10C16.8719 11.5 15.8719 12.44 14.4919 12.44Z" fill="#0B0D17"/>
<path d="M27.9329 4.72002C26.6129 4.72002 25.6129 5.20002 25.0729 5.94002V5.00002H22.0729V15H25.0729V9.54002C25.0729 8.12002 25.8329 7.48002 26.9329 7.48002C27.8929 7.48002 28.6729 8.06002 28.6729 9.30002V15H31.6729V8.86002C31.6729 6.16002 29.9529 4.72002 27.9329 4.72002Z" fill="#0B0D17"/>
<path d="M40.993 1.00002V5.94002C40.333 5.18002 39.353 4.72002 38.013 4.72002C35.393 4.72002 33.233 7.02002 33.233 10C33.233 12.98 35.393 15.28 38.013 15.28C39.353 15.28 40.333 14.82 40.993 14.06V15H43.993V1.00002H40.993ZM38.613 12.44C37.233 12.44 36.233 11.5 36.233 10C36.233 8.50002 37.233 7.56002 38.613 7.56002C39.993 7.56002 40.993 8.50002 40.993 10C40.993 11.5 39.993 12.44 38.613 12.44Z" fill="#0B0D17"/>
<path d="M47.6939 4.12002C48.6739 4.12002 49.4939 3.30002 49.4939 2.32002C49.4939 1.34002 48.6739 0.52002 47.6939 0.52002C46.7139 0.52002 45.8939 1.34002 45.8939 2.32002C45.8939 3.30002 46.7139 4.12002 47.6939 4.12002ZM46.1939 15H49.1939V5.00002H46.1939V15Z" fill="#0B0D17"/>
<path d="M56.8893 3.60002V0.720019C53.5693 0.52002 52.0293 2.20002 52.0293 5.00002H50.6893V7.88002H52.0293V15H55.0293V7.88002H56.8893V5.00002H55.0293C55.0293 3.84002 55.7693 3.50002 56.8893 3.60002Z" fill="#0B0D17"/>
<path d="M64.6814 5.00002L62.8014 11.12L60.5814 5.00002H57.2814L61.2614 14.54C60.8214 15.76 60.1614 16.2 58.7614 16.2V19C61.5614 19.14 63.3414 17.88 64.4614 14.7L67.8814 5.00002H64.6814Z" fill="#0B0D17"/>
</svg>
